<svg width="128" height="52" viewBox="0 0 128 52" fill="none" xmlns="http://www.w3.org/2000/svg">
<rect width="128" height="52" fill="#E5E5E5"/>
<rect width="128" height="52" rx="6" fill="#92B5C8"/>
<path d="M32.7246 18.6426V16.9609C32.7246 16.7305 32.6797 16.5137 32.5898 16.3105C32.5039 16.1035 32.3848 15.9238 32.2324 15.7715C32.0801 15.6191 31.9004 15.5 31.6934 15.4141C31.4902 15.3242 31.2734 15.2793 31.043 15.2793C30.8125 15.2793 30.5938 15.3242 30.3867 15.4141C30.1836 15.5 30.0059 15.6191 29.8535 15.7715C29.7012 15.9238 29.5801 16.1035 29.4902 16.3105C29.4043 16.5137 29.3613 16.7305 29.3613 16.9609V18.6426H32.7246ZM34.4062 22H32.7246V20.3184H29.3613V22H27.6855V16.9609C27.6855 16.4961 27.7734 16.0605 27.9492 15.6543C28.125 15.2441 28.3633 14.8867 28.6641 14.582C28.9688 14.2773 29.3242 14.0371 29.7305 13.8613C30.1406 13.6855 30.5781 13.5977 31.043 13.5977C31.5078 13.5977 31.9434 13.6855 32.3496 13.8613C32.7598 14.0371 33.1172 14.2773 33.4219 14.582C33.7266 14.8867 33.9668 15.2441 34.1426 15.6543C34.3184 16.0605 34.4062 16.4961 34.4062 16.9609V22ZM37.5469 15.2793V18.6426H39.2285C39.459 18.6426 39.6758 18.5996 39.8789 18.5137C40.082 18.4238 40.2598 18.3027 40.4121 18.1504C40.5645 17.998 40.6836 17.8203 40.7695 17.6172C40.8594 17.4102 40.9043 17.1914 40.9043 16.9609C40.9043 16.7305 40.8594 16.5137 40.7695 16.3105C40.6836 16.1035 40.5645 15.9238 40.4121 15.7715C40.2598 15.6191 40.082 15.5 39.8789 15.4141C39.6758 15.3242 39.459 15.2793 39.2285 15.2793H37.5469ZM37.5469 22H35.8652V13.5977H39.2285C39.5371 13.5977 39.834 13.6387 40.1191 13.7207C40.4043 13.7988 40.6699 13.9121 40.916 14.0605C41.166 14.2051 41.3926 14.3809 41.5957 14.5879C41.8027 14.791 41.9785 15.0176 42.123 15.2676C42.2715 15.5176 42.3848 15.7852 42.4629 16.0703C42.5449 16.3555 42.5859 16.6523 42.5859 16.9609C42.5859 17.4219 42.498 17.8574 42.3223 18.2676C42.1465 18.6738 41.9062 19.0293 41.6016 19.334C41.2969 19.6387 40.9395 19.8789 40.5293 20.0547C40.123 20.2305 39.6895 20.3184 39.2285 20.3184H37.5469V22ZM49.3359 22H43.5762V13.5977H49.3359V15.2793H45.2578V16.9609H48.0176V18.6426H45.2578V20.3184H49.3359V22ZM57.2344 22H55.4355L52.1953 16.4688V22H50.5137V13.5977H52.3125L55.5527 19.1348V13.5977H57.2344V22ZM63.7441 18.6426V16.9609C63.7441 16.7305 63.6992 16.5137 63.6094 16.3105C63.5234 16.1035 63.4043 15.9238 63.252 15.7715C63.0996 15.6191 62.9199 15.5 62.7129 15.4141C62.5098 15.3242 62.293 15.2793 62.0625 15.2793C61.832 15.2793 61.6133 15.3242 61.4062 15.4141C61.2031 15.5 61.0254 15.6191 60.873 15.7715C60.7207 15.9238 60.5996 16.1035 60.5098 16.3105C60.4238 16.5137 60.3809 16.7305 60.3809 16.9609V18.6426H63.7441ZM65.4258 22H63.7441V20.3184H60.3809V22H58.7051V16.9609C58.7051 16.4961 58.793 16.0605 58.9688 15.6543C59.1445 15.2441 59.3828 14.8867 59.6836 14.582C59.9883 14.2773 60.3438 14.0371 60.75 13.8613C61.1602 13.6855 61.5977 13.5977 62.0625 13.5977C62.5273 13.5977 62.9629 13.6855 63.3691 13.8613C63.7793 14.0371 64.1367 14.2773 64.4414 14.582C64.7461 14.8867 64.9863 15.2441 65.1621 15.6543C65.3379 16.0605 65.4258 16.4961 65.4258 16.9609V22ZM66.3926 16.1172C66.3926 15.7695 66.459 15.4434 66.5918 15.1387C66.7246 14.834 66.9043 14.5684 67.1309 14.3418C67.3613 14.1113 67.6289 13.9297 67.9336 13.7969C68.2383 13.6641 68.5645 13.5977 68.9121 13.5977H72.7676V15.2793H68.9121C68.7949 15.2793 68.6855 15.3008 68.584 15.3438C68.4824 15.3867 68.3926 15.4473 68.3145 15.5254C68.2402 15.5996 68.1816 15.6875 68.1387 15.7891C68.0957 15.8906 68.0742 16 68.0742 16.1172C68.0742 16.2344 68.0957 16.3457 68.1387 16.4512C68.1816 16.5527 68.2402 16.6426 68.3145 16.7207C68.3926 16.7949 68.4824 16.8535 68.584 16.8965C68.6855 16.9395 68.7949 16.9609 68.9121 16.9609H70.5938C70.9414 16.9609 71.2676 17.0273 71.5723 17.1602C71.8809 17.2891 72.1484 17.4688 72.375 17.6992C72.6055 17.9258 72.7852 18.1934 72.9141 18.502C73.0469 18.8066 73.1133 19.1328 73.1133 19.4805C73.1133 19.8281 73.0469 20.1543 72.9141 20.459C72.7852 20.7637 72.6055 21.0312 72.375 21.2617C72.1484 21.4883 71.8809 21.668 71.5723 21.8008C71.2676 21.9336 70.9414 22 70.5938 22H66.8613V20.3184H70.5938C70.7109 20.3184 70.8203 20.2969 70.9219 20.2539C71.0234 20.2109 71.1113 20.1523 71.1855 20.0781C71.2637 20 71.3242 19.9102 71.3672 19.8086C71.4102 19.707 71.4316 19.5977 71.4316 19.4805C71.4316 19.3633 71.4102 19.2539 71.3672 19.1523C71.3242 19.0508 71.2637 18.9629 71.1855 18.8887C71.1113 18.8105 71.0234 18.75 70.9219 18.707C70.8203 18.6641 70.7109 18.6426 70.5938 18.6426H68.9121C68.5645 18.6426 68.2383 18.5762 67.9336 18.4434C67.6289 18.3105 67.3613 18.1309 67.1309 17.9043C66.9043 17.6738 66.7246 17.4062 66.5918 17.1016C66.459 16.793 66.3926 16.4648 66.3926 16.1172ZM84.0059 13.5977L81.2461 22H79.5645L76.8164 13.5977H78.7266L80.4023 19.2051L82.084 13.5977H84.0059ZM86.4961 22H84.8145V13.5977H86.4961V22ZM93.0059 18.6426V16.9609C93.0059 16.7305 92.9609 16.5137 92.8711 16.3105C92.7852 16.1035 92.666 15.9238 92.5137 15.7715C92.3613 15.6191 92.1816 15.5 91.9746 15.4141C91.7715 15.3242 91.5547 15.2793 91.3242 15.2793C91.0938 15.2793 90.875 15.3242 90.668 15.4141C90.4648 15.5 90.2871 15.6191 90.1348 15.7715C89.9824 15.9238 89.8613 16.1035 89.7715 16.3105C89.6855 16.5137 89.6426 16.7305 89.6426 16.9609V18.6426H93.0059ZM94.6875 22H93.0059V20.3184H89.6426V22H87.9668V16.9609C87.9668 16.4961 88.0547 16.0605 88.2305 15.6543C88.4062 15.2441 88.6445 14.8867 88.9453 14.582C89.25 14.2773 89.6055 14.0371 90.0117 13.8613C90.4219 13.6855 90.8594 13.5977 91.3242 13.5977C91.7891 13.5977 92.2246 13.6855 92.6309 13.8613C93.041 14.0371 93.3984 14.2773 93.7031 14.582C94.0078 14.8867 94.248 15.2441 94.4238 15.6543C94.5996 16.0605 94.6875 16.4961 94.6875 16.9609V22ZM99.6855 18.6426C99.6855 19.1074 99.5977 19.5449 99.4219 19.9551C99.2461 20.3613 99.0059 20.7168 98.7012 21.0215C98.4004 21.3223 98.0449 21.5605 97.6348 21.7363C97.2285 21.9121 96.793 22 96.3281 22C96.0469 22 95.7656 21.9648 95.4844 21.8945V20.0898C95.6094 20.1641 95.7441 20.2207 95.8887 20.2598C96.0332 20.2988 96.1797 20.3184 96.3281 20.3184C96.5586 20.3184 96.7754 20.2754 96.9785 20.1895C97.1855 20.0996 97.3652 19.9785 97.5176 19.8262C97.6699 19.6738 97.7891 19.4961 97.875 19.293C97.9648 19.0898 98.0098 18.873 98.0098 18.6426V13.5977H99.6855V18.6426ZM106.91 22H101.15V13.5977H106.91V15.2793H102.832V16.9609H105.592V18.6426H102.832V20.3184H106.91V22Z" fill="#2563DC"/>
<path d="M18 18L17 20V23L11 27V29H12L17 28L18 31L16 32V34H22V32L20 31L21 28L26 29H27V27L21 23V20L20 18H18Z" fill="#3E5579"/>
<path d="M57.7715 29.6426C57.7715 30.1074 57.6836 30.5449 57.5078 30.9551C57.332 31.3613 57.0918 31.7168 56.7871 32.0215C56.4863 32.3223 56.1309 32.5605 55.7207 32.7363C55.3145 32.9121 54.8789 33 54.4141 33C54.1328 33 53.8516 32.9648 53.5703 32.8945V31.0898C53.6953 31.1641 53.8301 31.2207 53.9746 31.2598C54.1191 31.2988 54.2656 31.3184 54.4141 31.3184C54.6445 31.3184 54.8613 31.2754 55.0645 31.1895C55.2715 31.0996 55.4512 30.9785 55.6035 30.8262C55.7559 30.6738 55.875 30.4961 55.9609 30.293C56.0508 30.0898 56.0957 29.873 56.0957 29.6426V24.5977H57.7715V29.6426ZM67.5742 33H65.8984V27C65.8984 26.8828 65.875 26.7734 65.8281 26.6719C65.7852 26.5703 65.7246 26.4824 65.6465 26.4082C65.5723 26.3301 65.4844 26.2695 65.3828 26.2266C65.2812 26.1836 65.1719 26.1621 65.0547 26.1621C64.9375 26.1621 64.8281 26.1836 64.7266 26.2266C64.625 26.2695 64.5352 26.3301 64.457 26.4082C64.3828 26.4824 64.3242 26.5703 64.2812 26.6719C64.2383 26.7734 64.2168 26.8828 64.2168 27V33H62.5352V27C62.5352 26.8828 62.5137 26.7734 62.4707 26.6719C62.4277 26.5703 62.3672 26.4824 62.2891 26.4082C62.2148 26.3301 62.127 26.2695 62.0254 26.2266C61.9238 26.1836 61.8145 26.1621 61.6973 26.1621C61.5801 26.1621 61.4707 26.1836 61.3691 26.2266C61.2676 26.2695 61.1777 26.3301 61.0996 26.4082C61.0254 26.4824 60.9668 26.5703 60.9238 26.6719C60.8809 26.7734 60.8594 26.8828 60.8594 27V33H59.1777V27C59.1777 26.6523 59.2422 26.3262 59.3711 26.0215C59.5039 25.7129 59.6836 25.4453 59.9102 25.2188C60.1406 24.9883 60.4082 24.8086 60.7129 24.6797C61.0215 24.5469 61.3496 24.4805 61.6973 24.4805C62.0098 24.4805 62.3105 24.5371 62.5996 24.6504C62.8887 24.7598 63.1484 24.9199 63.3789 25.1309C63.6094 24.9199 63.8672 24.7598 64.1523 24.6504C64.4414 24.5371 64.7422 24.4805 65.0547 24.4805C65.4023 24.4805 65.7285 24.5469 66.0332 24.6797C66.3418 24.8086 66.6094 24.9883 66.8359 25.2188C67.0664 25.4453 67.2461 25.7129 67.375 26.0215C67.5078 26.3262 67.5742 26.6523 67.5742 27V33ZM74.9629 33H69.0801V24.5977H70.7617V31.3184H74.9629V33Z" fill="#6C449F"/>
<path fill-rule="evenodd" clip-rule="evenodd" d="M27.9982 45.5596L28.1914 47.2977C28.3513 48.7376 27.2399 50.0428 25.709 50.2129C24.1781 50.383 22.8073 49.3536 22.6473 47.9137L21.5852 38.3541L23.4332 38.1488L24.4953 47.7084C24.5486 48.1884 25.0056 48.5315 25.5159 48.4748C26.0262 48.4181 26.3967 47.983 26.3433 47.5031L26.1502 45.765L27.9982 45.5596ZM18.7582 46.5862L17.696 37.0266L19.5441 36.8213L20.6062 46.3809C20.7662 47.8208 19.6548 49.126 18.1238 49.2961C16.5929 49.4662 15.2221 48.4368 15.0621 46.9969L14.869 45.2588L16.717 45.0535L16.9101 46.7916C16.9635 47.2715 17.4204 47.6147 17.9307 47.558C18.441 47.5013 18.8115 47.0662 18.7582 46.5862Z" fill="#3E5579"/>
</svg>
